# Blender v2.79 (sub 0) OBJ File: ''
# www.blender.org
mtllib road.mtl
o Barricade_LP
v 28.809000 98.287399 2.307616
v 28.809000 70.281601 7.245811
v -27.810400 70.281601 7.245811
v -27.810400 98.287399 2.307616
v 28.809000 98.635696 4.283116
v -27.810400 98.635696 4.283216
v -27.810400 70.629997 9.221312
v 28.809000 70.629997 9.221312
v -23.983700 105.642601 1.946817
v -23.983700 103.791100 2.344717
v -21.450899 103.791100 2.344717
v -21.450899 105.642601 1.946817
v -23.983700 106.939697 0.590817
v -21.450899 106.939697 0.590817
v -23.983700 107.172302 -1.287583
v -21.450899 107.172302 -1.287583
v -23.983700 106.256500 -2.943983
v -21.450899 106.256500 -2.943983
v -23.983700 104.542000 -3.745783
v -21.450899 104.542000 -3.745783
v -23.983700 102.683601 -3.386683
v -21.450899 102.683601 -3.386583
v -23.983700 101.391296 -2.003783
v -21.450899 101.391296 -2.003783
v -23.983700 100.715103 -1.083184
v -21.450899 100.715103 -1.083184
v -21.450899 101.409203 2.753917
v -23.983700 101.394203 2.768416
v -21.450899 -76.052307 16.755199
v -23.983700 -76.052307 16.755199
v -23.983700 -75.373207 20.606800
v -21.450899 -75.373207 20.606800
v 22.012400 105.642601 1.946817
v 22.012400 103.791100 2.344717
v 24.545300 103.791100 2.344717
v 24.545300 105.642601 1.946817
v 22.012400 106.939697 0.590817
v 24.545200 106.939697 0.590817
v 22.012400 107.172302 -1.287583
v 24.545200 107.172302 -1.287583
v 22.012400 106.256500 -2.943983
v 24.545200 106.256500 -2.943983
v 22.012400 104.542000 -3.745783
v 24.545300 104.542000 -3.745783
v 22.012400 102.683601 -3.386683
v 24.545300 102.683601 -3.386683
v 22.012400 101.391296 -2.003783
v 24.545300 101.391296 -2.003783
v 22.012400 100.715103 -1.083184
v 24.545300 100.715103 -1.083184
v 24.545300 101.409203 2.753917
v 22.012400 101.394203 2.768416
v 24.545300 -76.052307 16.755199
v 22.012400 -76.052307 16.755199
v 22.012501 -75.373207 20.606800
v 24.545300 -75.373207 20.606800
v -27.810400 98.435204 -3.823584
v -27.810400 70.429398 -8.761688
v 28.809000 70.429398 -8.761688
v 28.809000 98.435204 -3.823584
v -27.810400 98.783600 -5.799084
v 28.809000 98.783600 -5.799084
v 28.809000 70.777802 -10.737288
v -27.810400 70.777802 -10.737288
v 21.938000 105.790398 -3.476183
v 21.938000 103.938904 -3.874083
v 19.405199 103.938904 -3.874083
v 19.405199 105.790398 -3.476183
v 21.938000 107.087502 -2.120183
v 19.405199 107.087502 -2.120183
v 21.938000 107.320198 -0.241783
v 19.405199 107.320198 -0.241783
v 21.938000 106.404297 1.414617
v 19.405199 106.404297 1.414617
v 21.938000 104.689796 2.216417
v 19.405199 104.689796 2.216417
v 21.938000 102.831398 1.857317
v 19.405199 102.831398 1.857317
v 21.938000 101.539101 0.474417
v 19.405199 101.539101 0.474417
v 21.938000 100.862900 -0.446184
v 19.405199 100.862900 -0.446184
v 19.405199 101.556999 -4.283283
v 21.938000 101.542000 -4.297783
v 19.405199 -75.904510 -18.284599
v 21.938000 -75.904510 -18.284599
v 21.938000 -75.225410 -22.136200
v 19.405199 -75.225311 -22.136200
v -18.714001 105.790398 -3.476183
v -18.714001 103.938904 -3.874083
v -21.246799 103.938904 -3.874083
v -21.246799 105.790398 -3.476183
v -18.714001 107.087502 -2.120183
v -21.246799 107.087502 -2.120183
v -18.714001 107.320198 -0.241783
v -21.246799 107.320198 -0.241783
v -18.714001 106.404297 1.414617
v -21.246799 106.404297 1.414617
v -18.714001 104.689796 2.216417
v -21.246799 104.689796 2.216417
v -18.714001 102.831398 1.857317
v -21.246799 102.831398 1.857317
v -18.714001 101.539101 0.474417
v -21.246799 101.539101 0.474417
v -18.714001 100.862900 -0.446184
v -21.246799 100.862900 -0.446184
v -21.246799 101.556999 -4.283283
v -18.714001 101.542000 -4.297783
v -21.246799 -75.904510 -18.284599
v -18.714001 -75.904510 -18.284599
v -18.714001 -75.225410 -22.136200
v -21.246799 -75.225311 -22.136200
v -12.760200 111.838699 -1.225482
v -12.800600 113.691803 -1.225482
v -12.800600 113.691803 -0.188581
v -12.760200 111.838699 -0.188582
v -13.547100 115.388298 -1.225481
v -13.547100 115.388298 -0.188581
v -14.886000 116.669998 -1.225481
v -14.886000 116.669998 -0.188581
v -16.613400 117.341797 -1.225481
v -16.613400 117.341797 -0.188581
v -18.466499 117.301300 -1.225481
v -18.466499 117.301300 -0.188581
v -20.163000 116.554802 -1.225481
v -20.163000 116.554802 -0.188581
v -21.444700 115.216003 -1.225481
v -21.444700 115.216003 -0.188581
v -22.116400 113.488503 -1.225482
v -22.116400 113.488503 -0.188582
v -22.076000 111.635498 -1.225482
v -22.076000 111.635498 -0.188582
v -21.329500 109.939003 -1.225482
v -21.329500 109.938904 -0.188582
v -19.990601 108.657204 -1.225482
v -19.990601 108.657204 -0.188582
v -18.263201 107.985497 -1.225482
v -18.263201 107.985497 -0.188582
v -16.410200 108.025902 -1.225482
v -16.410200 108.025902 -0.188582
v -14.713600 108.772400 -1.225482
v -14.713600 108.772400 -0.188582
v -13.431900 110.111298 -1.225482
v -13.431900 110.111298 -0.188582
v -15.267200 111.819298 -1.731682
v -15.306100 113.601799 -1.731681
v -16.594000 114.834702 -1.731681
v -18.376499 114.795799 -1.731681
v -19.609400 113.507896 -1.731681
v -19.570499 111.725403 -1.731682
v -18.282600 110.492500 -1.731682
v -16.500099 110.531403 -1.731682
v -17.438299 112.663597 -1.731682
v -15.306100 113.601799 0.224719
v -15.267200 111.819298 0.224718
v -16.594000 114.834702 0.224719
v -18.376499 114.795799 0.224719
v -19.609400 113.507896 0.224718
v -19.570499 111.725403 0.224718
v -18.282600 110.492500 0.224718
v -16.500099 110.531403 0.224718
v -17.438299 112.663597 0.224718
v -15.964000 100.549400 -3.241984
v -15.964000 108.027100 -2.617982
v -15.964000 108.027100 1.381518
v -15.964000 100.549400 2.005517
v -18.606701 100.549400 -3.241984
v -18.606701 100.549400 2.005517
v -18.606701 108.027100 1.381518
v -18.606701 108.027100 -2.617982
vt 0.471300 0.875800
vt 0.471300 0.670600
vt 0.879800 0.670600
vt 0.879800 0.875800
vt 0.471300 0.450900
vt 0.879900 0.450900
vt 0.879800 0.656100
vt 0.471300 0.656100
vt 0.456800 0.656100
vt 0.456800 0.450900
vt 0.471300 0.436400
vt 0.879900 0.436400
vt 0.894300 0.450900
vt 0.894300 0.656100
vt 0.800600 0.940200
vt 0.786900 0.939900
vt 0.786600 0.922200
vt 0.800300 0.921900
vt 0.814100 0.939900
vt 0.813800 0.921700
vt 0.827800 0.939700
vt 0.827400 0.921400
vt 0.841500 0.939400
vt 0.841100 0.921100
vt 0.855100 0.939100
vt 0.854700 0.920800
vt 0.868800 0.938800
vt 0.868400 0.920500
vt 0.882500 0.938500
vt 0.882100 0.920200
vt 0.890700 0.938300
vt 0.890300 0.920000
vt 0.770400 0.925100
vt 0.786900 0.940000
vt 0.770400 0.942900
vt 0.787800 0.925200
vt 0.770300 0.896900
vt 0.776200 0.891200
vt 0.800900 0.985300
vt 0.812500 0.951500
vt 0.816500 0.964500
vt 0.812100 0.977500
vt 0.770400 0.989500
vt 0.029100 0.989500
vt 0.029100 0.971200
vt 0.770400 0.971200
vt 0.029100 0.943100
vt 0.029000 0.925000
vt 0.029000 0.896900
vt 0.787900 0.943000
vt 0.776300 0.976900
vt 0.801600 0.943500
vt 0.787300 0.985100
vt 0.787100 0.883000
vt 0.801500 0.924600
vt 0.800800 0.882800
vt 0.812400 0.916600
vt 0.812000 0.890700
vt 0.816400 0.903600
vt 0.781000 0.065000
vt 0.767300 0.064800
vt 0.767100 0.047000
vt 0.780700 0.046800
vt 0.794500 0.064800
vt 0.794200 0.046500
vt 0.808200 0.064600
vt 0.807900 0.046300
vt 0.821900 0.064300
vt 0.821500 0.046000
vt 0.835500 0.064000
vt 0.835200 0.045800
vt 0.849200 0.063800
vt 0.848800 0.045500
vt 0.862900 0.063500
vt 0.862500 0.045200
vt 0.871100 0.063300
vt 0.870700 0.045000
vt 0.750800 0.049900
vt 0.750800 0.067700
vt 0.768200 0.050000
vt 0.750700 0.021800
vt 0.756600 0.016100
vt 0.781300 0.110100
vt 0.792900 0.076300
vt 0.796900 0.089400
vt 0.792500 0.102300
vt 0.750800 0.114300
vt 0.009500 0.114300
vt 0.009500 0.096100
vt 0.750800 0.096000
vt 0.009500 0.067900
vt 0.009400 0.049800
vt 0.009400 0.021700
vt 0.768400 0.067800
vt 0.756800 0.101700
vt 0.782000 0.068300
vt 0.767700 0.109900
vt 0.767600 0.007900
vt 0.781900 0.049500
vt 0.781200 0.007600
vt 0.792800 0.041500
vt 0.792400 0.015500
vt 0.796800 0.028400
vt 0.027200 0.877500
vt 0.027200 0.672300
vt 0.435700 0.672300
vt 0.435700 0.877500
vt 0.027200 0.452600
vt 0.435700 0.452600
vt 0.435700 0.657800
vt 0.027200 0.657800
vt 0.012700 0.657800
vt 0.012700 0.452600
vt 0.027200 0.438100
vt 0.435700 0.438100
vt 0.450200 0.452600
vt 0.450200 0.657800
vt 0.800600 0.940200
vt 0.786900 0.939900
vt 0.786600 0.922200
vt 0.800300 0.921900
vt 0.814100 0.939900
vt 0.813800 0.921700
vt 0.827800 0.939700
vt 0.827400 0.921400
vt 0.841500 0.939400
vt 0.841100 0.921100
vt 0.855100 0.939100
vt 0.854700 0.920800
vt 0.868800 0.938800
vt 0.868400 0.920500
vt 0.882500 0.938500
vt 0.882100 0.920200
vt 0.890700 0.938300
vt 0.890300 0.920000
vt 0.770400 0.925100
vt 0.786900 0.940000
vt 0.770400 0.942900
vt 0.787800 0.925200
vt 0.770300 0.896900
vt 0.776200 0.891200
vt 0.800900 0.985300
vt 0.812500 0.951500
vt 0.816500 0.964500
vt 0.812100 0.977500
vt 0.770400 0.989500
vt 0.029100 0.989500
vt 0.029100 0.971200
vt 0.770400 0.971200
vt 0.029100 0.943100
vt 0.029000 0.925000
vt 0.029000 0.896900
vt 0.787900 0.943000
vt 0.776300 0.976900
vt 0.801600 0.943500
vt 0.787300 0.985100
vt 0.787100 0.883000
vt 0.801500 0.924600
vt 0.800800 0.882800
vt 0.812400 0.916600
vt 0.812000 0.890700
vt 0.816400 0.903600
vt 0.781000 0.065000
vt 0.767300 0.064800
vt 0.767100 0.047000
vt 0.780700 0.046800
vt 0.794500 0.064800
vt 0.794200 0.046500
vt 0.808200 0.064600
vt 0.807900 0.046300
vt 0.821900 0.064300
vt 0.821500 0.046000
vt 0.835500 0.064000
vt 0.835200 0.045800
vt 0.849200 0.063800
vt 0.848800 0.045500
vt 0.862900 0.063500
vt 0.862500 0.045200
vt 0.871100 0.063300
vt 0.870700 0.045000
vt 0.750800 0.049900
vt 0.750800 0.067700
vt 0.768200 0.050000
vt 0.750700 0.021800
vt 0.756600 0.016100
vt 0.781300 0.110100
vt 0.792900 0.076300
vt 0.796900 0.089400
vt 0.792500 0.102300
vt 0.750800 0.114300
vt 0.009500 0.114300
vt 0.009500 0.096100
vt 0.750800 0.096000
vt 0.009500 0.067900
vt 0.009400 0.049800
vt 0.009400 0.021700
vt 0.768400 0.067800
vt 0.756800 0.101700
vt 0.782000 0.068300
vt 0.767700 0.109900
vt 0.767600 0.007900
vt 0.781900 0.049500
vt 0.781200 0.007600
vt 0.792800 0.041500
vt 0.792400 0.015500
vt 0.796800 0.028400
vt 0.995400 0.228400
vt 0.995400 0.247300
vt 0.984700 0.247300
vt 0.984700 0.228400
vt 0.995400 0.263200
vt 0.984700 0.263200
vt 0.995400 0.279200
vt 0.984700 0.279200
vt 0.995400 0.298000
vt 0.984700 0.298000
vt 0.995400 0.317000
vt 0.984700 0.317000
vt 0.995400 0.332900
vt 0.984700 0.332900
vt 0.995400 0.348900
vt 0.984700 0.348900
vt 0.995400 0.367700
vt 0.984700 0.367700
vt 0.995400 0.386500
vt 0.984700 0.386500
vt 0.995400 0.402500
vt 0.984700 0.402500
vt 0.995400 0.418500
vt 0.984700 0.418500
vt 0.995400 0.437300
vt 0.984700 0.437300
vt 0.995400 0.158800
vt 0.995400 0.177600
vt 0.984700 0.177600
vt 0.984700 0.158800
vt 0.995400 0.193600
vt 0.984700 0.193600
vt 0.995400 0.209600
vt 0.984700 0.209600
vt 0.923500 0.363100
vt 0.942700 0.363100
vt 0.942300 0.389100
vt 0.923800 0.389100
vt 0.905700 0.370500
vt 0.892100 0.384000
vt 0.910800 0.402200
vt 0.884800 0.401900
vt 0.884800 0.420900
vt 0.910800 0.420600
vt 0.892100 0.438800
vt 0.905700 0.452400
vt 0.923800 0.433700
vt 0.923500 0.459700
vt 0.942700 0.459700
vt 0.942300 0.433700
vt 0.960400 0.452400
vt 0.974000 0.438800
vt 0.955400 0.420600
vt 0.981400 0.421000
vt 0.981400 0.401800
vt 0.955400 0.402200
vt 0.974000 0.384000
vt 0.960400 0.370500
vt 0.933100 0.411400
vt 0.926700 0.259200
vt 0.946000 0.259200
vt 0.945600 0.285200
vt 0.927100 0.285200
vt 0.963700 0.266500
vt 0.977300 0.280100
vt 0.958700 0.298200
vt 0.958700 0.316700
vt 0.977300 0.334800
vt 0.963700 0.348400
vt 0.945600 0.329800
vt 0.946000 0.355800
vt 0.926700 0.355800
vt 0.927100 0.329800
vt 0.909000 0.348400
vt 0.895400 0.334800
vt 0.914000 0.316700
vt 0.888100 0.317100
vt 0.888100 0.297900
vt 0.914000 0.298200
vt 0.895400 0.280100
vt 0.909000 0.266500
vt 0.936400 0.307500
vt 0.966700 0.037500
vt 0.959800 0.120400
vt 0.915400 0.120400
vt 0.908500 0.037500
vt 0.966700 0.232800
vt 0.908500 0.232800
vt 0.915400 0.149800
vt 0.959800 0.149800
vt 0.908500 0.008100
vt 0.966700 0.008100
vt 0.886200 0.122800
vt 0.879300 0.040000
vt 0.996000 0.040000
vt 0.989100 0.122800
vn 0.0000 -0.1736 -0.9848
vn 0.0000 0.1736 0.9848
vn 0.0000 -0.9848 0.1737
vn 1.0000 0.0000 0.0000
vn -0.0000 0.9848 -0.1736
vn -1.0000 0.0000 0.0000
vn 0.0000 0.4879 0.8729
vn 0.0000 0.1968 0.9804
vn -0.0000 0.1898 0.9818
vn 0.0000 0.9034 0.4288
vn 0.0000 0.9818 -0.1898
vn 0.0000 0.6828 -0.7306
vn 0.0000 0.1230 -0.9924
vn 0.0000 -0.4839 -0.8751
vn 0.0000 -0.7696 -0.6385
vn 0.0000 -0.8059 -0.5920
vn 0.0022 0.1716 0.9852
vn 0.0046 0.1741 0.9847
vn 0.0000 -0.1004 -0.9949
vn 0.0048 0.1003 0.9949
vn 0.0003 0.1005 0.9949
vn 0.0002 0.1005 0.9949
vn 0.0000 -0.8060 -0.5920
vn 0.0049 0.1003 0.9949
vn 0.0000 -0.1736 0.9848
vn 0.0000 0.1736 -0.9848
vn 0.0000 -0.9848 -0.1737
vn 0.0000 0.9848 0.1737
vn 0.0000 0.4879 -0.8729
vn -0.0000 0.1968 -0.9804
vn 0.0000 0.1898 -0.9818
vn 0.0000 0.9034 -0.4289
vn 0.0000 0.9818 0.1898
vn 0.0000 0.6828 0.7306
vn 0.0000 0.1230 0.9924
vn 0.0000 -0.4839 0.8751
vn 0.0000 -0.7696 0.6385
vn 0.0000 -0.8059 0.5920
vn -0.0022 0.1716 -0.9852
vn -0.0046 0.1741 -0.9847
vn 0.0000 -0.1004 0.9949
vn -0.0047 0.1003 -0.9949
vn -0.0048 0.1003 -0.9949
vn -0.0003 0.1005 -0.9949
vn -0.0002 0.1005 -0.9949
vn 0.9848 -0.1736 0.0000
vn 0.9763 0.2164 0.0000
vn 0.8191 0.5736 0.0000
vn 0.5373 0.8434 0.0000
vn 0.1736 0.9848 0.0000
vn -0.2165 0.9763 0.0000
vn -0.5736 0.8192 0.0000
vn -0.8434 0.5373 0.0000
vn -0.9848 0.1736 0.0000
vn -0.9763 -0.2164 -0.0000
vn -0.8192 -0.5736 -0.0000
vn -0.8191 -0.5736 -0.0000
vn -0.5373 -0.8434 -0.0000
vn -0.1736 -0.9848 0.0000
vn 0.2164 -0.9763 0.0000
vn 0.5736 -0.8192 0.0000
vn 0.8434 -0.5373 0.0000
vn 0.1965 0.0397 -0.9797
vn 0.1981 -0.0311 -0.9797
vn 0.1102 -0.0429 -0.9930
vn 0.1083 0.0476 -0.9930
vn 0.1620 0.1181 -0.9797
vn 0.1109 0.1670 -0.9797
vn 0.0429 0.1102 -0.9930
vn 0.0311 0.1980 -0.9797
vn -0.0397 0.1965 -0.9797
vn -0.0476 0.1083 -0.9930
vn -0.1181 0.1620 -0.9797
vn -0.1670 0.1109 -0.9797
vn -0.1102 0.0429 -0.9930
vn -0.1981 0.0311 -0.9797
vn -0.1965 -0.0397 -0.9797
vn -0.1083 -0.0476 -0.9930
vn -0.1620 -0.1181 -0.9797
vn -0.1109 -0.1670 -0.9797
vn -0.0429 -0.1102 -0.9930
vn -0.0311 -0.1981 -0.9797
vn 0.0397 -0.1965 -0.9797
vn 0.0476 -0.1083 -0.9930
vn 0.1181 -0.1620 -0.9797
vn 0.1670 -0.1109 -0.9797
vn 0.0000 0.0000 -1.0000
vn 0.1628 -0.0255 0.9863
vn 0.1615 0.0326 0.9863
vn 0.0889 0.0391 0.9953
vn 0.0905 -0.0352 0.9953
vn 0.1332 0.0971 0.9863
vn 0.0912 0.1373 0.9863
vn 0.0352 0.0905 0.9953
vn 0.0255 0.1628 0.9863
vn -0.0326 0.1615 0.9863
vn -0.0391 0.0889 0.9953
vn -0.0971 0.1332 0.9863
vn -0.1373 0.0912 0.9863
vn -0.0905 0.0352 0.9953
vn -0.1628 0.0255 0.9863
vn -0.1615 -0.0326 0.9863
vn -0.0889 -0.0391 0.9953
vn -0.1332 -0.0971 0.9863
vn -0.0912 -0.1373 0.9863
vn -0.0352 -0.0905 0.9953
vn -0.0255 -0.1628 0.9863
vn 0.0326 -0.1615 0.9863
vn 0.0391 -0.0889 0.9953
vn 0.0971 -0.1332 0.9863
vn 0.1373 -0.0912 0.9863
vn -0.0000 -0.0000 1.0000
vn 0.0000 -1.0000 0.0000
vn 0.0000 0.0832 0.9965
vn 0.0000 1.0000 0.0000
vn 0.0000 0.0832 -0.9965
usemtl Barricade_DX
s 1
f 1/1/1 2/2/1 3/3/1 4/4/1
f 5/5/2 6/6/2 7/7/2 8/8/2
f 8/8/3 7/7/3 3/3/3 2/2/3
f 5/5/4 8/8/4 2/9/4 1/10/4
f 6/6/5 5/5/5 1/11/5 4/12/5
f 7/7/6 6/6/6 4/13/6 3/14/6
f 9/15/7 10/16/8 11/17/9 12/18/7
f 13/19/10 9/15/7 12/18/7 14/20/10
f 15/21/11 13/19/10 14/20/10 16/22/11
f 17/23/12 15/21/11 16/22/11 18/24/12
f 19/25/13 17/23/12 18/24/12 20/26/13
f 21/27/14 19/25/13 20/26/13 22/28/14
f 23/29/15 21/27/14 22/28/14 24/30/15
f 25/31/16 23/29/15 24/30/15 26/32/16
f 27/33/17 10/34/18 28/35/18
f 11/36/4 27/33/4 26/37/4 24/38/4
f 19/39/6 13/40/6 15/41/6 17/42/6
f 26/43/19 29/44/19 30/45/19 25/46/19
f 27/33/20 28/35/20 31/47/21 32/48/22
f 27/33/4 32/48/4 29/49/4 26/37/4
f 31/47/6 28/35/6 25/46/6 30/45/6
f 10/50/6 23/51/6 25/46/6 28/35/6
f 23/51/6 9/52/6 21/53/6
f 13/40/6 19/39/6 21/53/6 9/52/6
f 11/36/4 24/38/4 22/54/4 12/55/4
f 12/55/4 22/54/4 20/56/4 14/57/4
f 14/57/4 20/56/4 18/58/4 16/59/4
f 33/60/7 34/61/8 35/62/9 36/63/7
f 37/64/10 33/60/7 36/63/7 38/65/10
f 39/66/11 37/64/10 38/65/10 40/67/11
f 41/68/12 39/66/11 40/67/11 42/69/12
f 43/70/13 41/68/12 42/69/12 44/71/13
f 45/72/14 43/70/13 44/71/13 46/73/14
f 47/74/15 45/72/14 46/73/14 48/75/15
f 49/76/23 47/74/15 48/75/15 50/77/23
f 51/78/17 34/61/18 52/79/18
f 35/80/4 51/78/4 50/81/4 48/82/4
f 43/83/6 37/84/6 39/85/6 41/86/6
f 50/87/19 53/88/19 54/89/19 49/90/19
f 51/78/20 52/79/24 55/91/21 56/92/22
f 51/78/4 56/92/4 53/93/4 50/81/4
f 55/91/6 52/79/6 49/90/6 54/89/6
f 34/94/6 47/95/6 49/90/6 52/79/6
f 47/95/6 33/96/6 45/97/6
f 37/84/6 43/83/6 45/97/6 33/96/6
f 35/80/4 48/82/4 46/98/4 36/99/4
f 36/99/4 46/98/4 44/100/4 38/101/4
f 38/101/4 44/100/4 42/102/4 40/103/4
f 57/104/25 58/105/25 59/106/25 60/107/25
f 61/108/26 62/109/26 63/110/26 64/111/26
f 64/111/27 63/110/27 59/106/27 58/105/27
f 61/108/6 64/111/6 58/112/6 57/113/6
f 62/109/28 61/108/28 57/114/28 60/115/28
f 63/110/4 62/109/4 60/116/4 59/117/4
f 65/118/29 66/119/30 67/120/31 68/121/29
f 69/122/32 65/118/29 68/121/29 70/123/32
f 71/124/33 69/122/32 70/123/32 72/125/33
f 73/126/34 71/124/33 72/125/33 74/127/34
f 75/128/35 73/126/34 74/127/34 76/129/35
f 77/130/36 75/128/35 76/129/35 78/131/36
f 79/132/37 77/130/36 78/131/36 80/133/37
f 81/134/38 79/132/37 80/133/37 82/135/38
f 83/136/39 66/137/40 84/138/40
f 67/139/6 83/136/6 82/140/6 80/141/6
f 75/142/4 69/143/4 71/144/4 73/145/4
f 82/146/41 85/147/41 86/148/41 81/149/41
f 83/136/42 84/138/43 87/150/44 88/151/45
f 83/136/6 88/151/6 85/152/6 82/140/6
f 87/150/4 84/138/4 81/149/4 86/148/4
f 66/153/4 79/154/4 81/149/4 84/138/4
f 79/154/4 65/155/4 77/156/4
f 69/143/4 75/142/4 77/156/4 65/155/4
f 67/139/6 80/141/6 78/157/6 68/158/6
f 68/158/6 78/157/6 76/159/6 70/160/6
f 70/160/6 76/159/6 74/161/6 72/162/6
f 89/163/29 90/164/30 91/165/31 92/166/29
f 93/167/32 89/163/29 92/166/29 94/168/32
f 95/169/33 93/167/32 94/168/32 96/170/33
f 97/171/34 95/169/33 96/170/33 98/172/34
f 99/173/35 97/171/34 98/172/34 100/174/35
f 101/175/36 99/173/35 100/174/35 102/176/36
f 103/177/37 101/175/36 102/176/36 104/178/37
f 105/179/38 103/177/37 104/178/37 106/180/38
f 107/181/39 90/164/40 108/182/40
f 91/183/6 107/181/6 106/184/6 104/185/6
f 99/186/4 93/187/4 95/188/4 97/189/4
f 106/190/41 109/191/41 110/192/41 105/193/41
f 107/181/42 108/182/43 111/194/44 112/195/45
f 107/181/6 112/195/6 109/196/6 106/184/6
f 111/194/4 108/182/4 105/193/4 110/192/4
f 90/197/4 103/198/4 105/193/4 108/182/4
f 103/198/4 89/199/4 101/200/4
f 93/187/4 99/186/4 101/200/4 89/199/4
f 91/183/6 104/185/6 102/201/6 92/202/6
f 92/202/6 102/201/6 100/203/6 94/204/6
f 94/204/6 100/203/6 98/205/6 96/206/6
f 113/207/46 114/208/47 115/209/47 116/210/46
f 114/208/47 117/211/48 118/212/48 115/209/47
f 117/211/48 119/213/49 120/214/49 118/212/48
f 119/213/49 121/215/50 122/216/50 120/214/49
f 121/215/50 123/217/51 124/218/51 122/216/50
f 123/217/51 125/219/52 126/220/52 124/218/51
f 125/219/52 127/221/53 128/222/53 126/220/52
f 127/221/53 129/223/54 130/224/54 128/222/53
f 129/223/54 131/225/55 132/226/55 130/224/54
f 131/225/55 133/227/56 134/228/57 132/226/55
f 133/227/56 135/229/58 136/230/58 134/228/57
f 135/229/58 137/231/59 138/232/59 136/230/58
f 137/233/59 139/234/60 140/235/60 138/236/59
f 139/234/60 141/237/61 142/238/61 140/235/60
f 141/237/61 143/239/62 144/240/62 142/238/61
f 143/239/62 113/207/46 116/210/46 144/240/62
f 114/241/63 113/242/64 145/243/65 146/244/66
f 117/245/67 114/241/63 146/244/66
f 119/246/68 117/245/67 146/244/66 147/247/69
f 121/248/70 119/246/68 147/247/69
f 123/249/71 121/248/70 147/247/69 148/250/72
f 125/251/73 123/249/71 148/250/72
f 127/252/74 125/251/73 148/250/72 149/253/75
f 129/254/76 127/252/74 149/253/75
f 131/255/77 129/254/76 149/253/75 150/256/78
f 133/257/79 131/255/77 150/256/78
f 135/258/80 133/257/79 150/256/78 151/259/81
f 137/260/82 135/258/80 151/259/81
f 139/261/83 137/260/82 151/259/81 152/262/84
f 141/263/85 139/261/83 152/262/84
f 143/264/86 141/263/85 152/262/84 145/243/65
f 113/242/64 143/264/86 145/243/65
f 146/244/66 145/243/65 153/265/87
f 147/247/69 146/244/66 153/265/87
f 148/250/72 147/247/69 153/265/87
f 149/253/75 148/250/72 153/265/87
f 150/256/78 149/253/75 153/265/87
f 151/259/81 150/256/78 153/265/87
f 152/262/84 151/259/81 153/265/87
f 145/243/65 152/262/84 153/265/87
f 116/266/88 115/267/89 154/268/90 155/269/91
f 115/267/89 118/270/92 154/268/90
f 118/270/92 120/271/93 156/272/94 154/268/90
f 120/271/93 122/216/95 156/272/94
f 122/216/95 124/218/96 157/273/97 156/272/94
f 124/218/96 126/274/98 157/273/97
f 126/274/98 128/275/99 158/276/100 157/273/97
f 128/275/99 130/277/101 158/276/100
f 130/277/101 132/278/102 159/279/103 158/276/100
f 132/278/102 134/280/104 159/279/103
f 134/280/104 136/281/105 160/282/106 159/279/103
f 136/281/105 138/283/107 160/282/106
f 138/283/107 140/284/108 161/285/109 160/282/106
f 140/284/108 142/286/110 161/285/109
f 142/286/110 144/287/111 155/269/91 161/285/109
f 144/287/111 116/266/88 155/269/91
f 155/269/91 154/268/90 162/288/112
f 154/268/90 156/272/94 162/288/112
f 156/272/94 157/273/97 162/288/112
f 157/273/97 158/276/100 162/288/112
f 158/276/100 159/279/103 162/288/112
f 159/279/103 160/282/106 162/288/112
f 160/282/106 161/285/109 162/288/112
f 161/285/109 155/269/91 162/288/112
f 163/289/4 164/290/4 165/291/4 166/292/4
f 167/293/6 168/294/6 169/295/6 170/296/6
f 163/289/113 166/292/113 168/297/113 167/298/113
f 166/292/114 165/291/114 169/299/114 168/300/114
f 165/291/115 164/290/115 170/296/115 169/295/115
f 164/290/116 163/289/116 167/301/116 170/302/116
